<?xml version="1.0" encoding="UTF-8" standalone="no"?>
<svg
   xmlns:dc="http://purl.org/dc/elements/1.1/"
   xmlns:cc="http://creativecommons.org/ns#"
   xmlns:rdf="http://www.w3.org/1999/02/22-rdf-syntax-ns#"
   xmlns:svg="http://www.w3.org/2000/svg"
   xmlns="http://www.w3.org/2000/svg"
   xmlns:sodipodi="http://sodipodi.sourceforge.net/DTD/sodipodi-0.dtd"
   xmlns:inkscape="http://www.inkscape.org/namespaces/inkscape"
   inkscape:version="1.0 (4035a4fb49, 2020-05-01)"
   sodipodi:docname="co2svg.svg"
   inkscape:export-ydpi="96"
   inkscape:export-xdpi="96"
   inkscape:export-filename="C:\Users\gcgol\Desktop\co2.png"
   id="svg8"
   version="1.1"
   viewBox="0 0 63.499999 63.500002"
   height="240"
   width="240">
  <defs
     id="defs2" />
  <sodipodi:namedview
     inkscape:window-maximized="1"
     inkscape:window-y="-8"
     inkscape:window-x="-8"
     inkscape:window-height="1057"
     inkscape:window-width="1853"
     units="px"
     showgrid="false"
     inkscape:document-rotation="0"
     inkscape:current-layer="layer1"
     inkscape:document-units="mm"
     inkscape:cy="178.39989"
     inkscape:cx="107.50271"
     inkscape:zoom="1.4"
     inkscape:pageshadow="2"
     inkscape:pageopacity="0.0"
     borderopacity="1.0"
     bordercolor="#666666"
     pagecolor="#ffffff"
     id="base" />
  <metadata
     id="metadata5">
    <rdf:RDF>
      <cc:Work
         rdf:about="">
        <dc:format>image/svg+xml</dc:format>
        <dc:type
           rdf:resource="http://purl.org/dc/dcmitype/StillImage" />
        <dc:title></dc:title>
      </cc:Work>
    </rdf:RDF>
  </metadata>
  <g
     id="layer1"
     inkscape:groupmode="layer"
     inkscape:label="Layer 1">
    <text
       id="text857"
       y="125.67708"
       x="46.680061"
       style="font-style:normal;font-weight:normal;font-size:10.5833px;line-height:1.25;font-family:sans-serif;fill:#000000;fill-opacity:1;stroke:none;stroke-width:0.264583"
       xml:space="preserve"><tspan
         id="tspan861"
         style="stroke-width:0.264583"
         y="125.67708"
         x="46.680061"
         sodipodi:role="line" /></text>
    <path
       transform="scale(0.26458333)"
       d="M 135.92969 18.621094 A 72.833594 70.018768 0 0 0 69.251953 60.470703 A 37.296432 35.185313 0 0 0 37.058594 95.324219 A 37.296432 35.185313 0 0 0 38.509766 105.03711 A 57.7039 59.11132 0 0 0 1.8730469 160.06641 A 57.7039 59.11132 0 0 0 59.578125 219.17773 A 57.7039 59.11132 0 0 0 61.015625 219.1582 L 168.4375 219.1582 L 168.4375 219.14844 A 68.258669 67.895596 0 0 0 170.07422 219.16797 A 68.258669 67.895596 0 0 0 238.33398 151.27344 A 68.258669 67.895596 0 0 0 208.45117 95.125 A 72.833594 70.018768 0 0 0 208.76367 88.640625 A 72.833594 70.018768 0 0 0 135.92969 18.621094 z M 122.88867 43.917969 A 6.5718641 6.5718641 0 0 1 122.89062 43.917969 A 6.5718641 6.5718641 0 0 1 129.41602 50.318359 A 6.5718641 6.5718641 0 0 1 123.01562 57.058594 A 6.5718641 6.5718641 0 0 1 116.27539 50.660156 A 6.5718641 6.5718641 0 0 1 122.67383 43.919922 A 6.5718641 6.5718641 0 0 1 122.88867 43.917969 z M 149.80664 46.035156 A 13.613147 13.613147 0 0 1 163.45703 59.294922 A 13.613147 13.613147 0 0 1 150.20312 73.257812 A 13.613147 13.613147 0 0 1 136.24023 60.001953 A 13.613147 13.613147 0 0 1 149.49609 46.039062 A 13.613147 13.613147 0 0 1 149.80664 46.035156 z M 106.40234 61.25 A 4.6941887 4.6941887 0 0 1 111.03516 65.822266 A 4.6941887 4.6941887 0 0 1 106.46484 70.636719 A 4.6941887 4.6941887 0 0 1 101.65039 66.066406 A 4.6941887 4.6941887 0 0 1 106.2207 61.251953 A 4.6941887 4.6941887 0 0 1 106.40234 61.25 z M 124.94727 69.220703 A 6.1024451 6.1024451 0 0 1 124.94922 69.220703 A 6.1024451 6.1024451 0 0 1 131 75.164062 A 6.1024451 6.1024451 0 0 1 125.05859 81.423828 A 6.1024451 6.1024451 0 0 1 118.79883 75.482422 A 6.1024451 6.1024451 0 0 1 124.74023 69.222656 A 6.1024451 6.1024451 0 0 1 124.94727 69.220703 z M 138.25195 116.11719 C 149.31925 116.11719 158.02196 119.34947 164.35938 125.81055 C 170.69678 132.2407 173.86523 141.00335 173.86523 152.10156 C 173.86523 163.10703 170.7108 171.85567 164.4043 178.34766 C 158.09779 184.80873 149.38108 188.04102 138.25195 188.04102 C 127.15375 188.04102 118.45104 184.80873 112.14453 178.34766 C 105.83803 171.85567 102.68555 163.10703 102.68555 152.10156 C 102.68555 141.00335 105.83803 132.2407 112.14453 125.81055 C 118.45104 119.34947 127.15375 116.11719 138.25195 116.11719 z M 72.154297 116.21094 C 75.060237 116.21094 77.671668 116.38065 79.990234 116.7207 C 82.339715 117.02985 84.50391 117.44712 86.482422 117.97266 C 88.553676 118.56003 90.424383 119.22486 92.09375 119.9668 C 93.794033 120.67782 95.27744 121.34265 96.544922 121.96094 L 96.544922 138.70117 L 94.505859 138.70117 C 93.640259 137.95923 92.542201 137.07877 91.212891 136.05859 C 89.914492 135.03843 88.431086 134.03222 86.761719 133.04297 C 85.061435 132.05371 83.222653 131.21918 81.244141 130.53906 C 79.265631 129.85895 77.147366 129.51953 74.890625 129.51953 C 72.386575 129.51953 70.006741 129.92084 67.75 130.72461 C 65.493262 131.49746 63.404965 132.79716 61.488281 134.62109 C 59.664344 136.38321 58.180938 138.71711 57.037109 141.62305 C 55.9242 144.52899 55.367188 148.05281 55.367188 152.19531 C 55.367188 156.5233 55.970127 160.14094 57.175781 163.04688 C 58.412349 165.95279 59.9596 168.23883 61.814453 169.9082 C 63.700223 171.60849 65.800572 172.83032 68.119141 173.57227 C 70.437704 174.28329 72.725681 174.63867 74.982422 174.63867 C 77.146416 174.63867 79.280646 174.31326 81.382812 173.66406 C 83.515895 173.01487 85.478459 172.1344 87.271484 171.02148 C 88.786281 170.12497 90.193789 169.16665 91.492188 168.14648 C 92.790584 167.12631 93.856723 166.24585 94.691406 165.50391 L 96.544922 165.50391 L 96.544922 182.01172 C 94.813724 182.78457 93.160609 183.51129 91.583984 184.19141 C 90.007359 184.87152 88.354247 185.45852 86.623047 185.95312 C 84.366311 186.60232 82.248043 187.09744 80.269531 187.4375 C 78.291022 187.77755 75.569817 187.94727 72.107422 187.94727 C 66.97566 187.94727 62.23 187.19058 57.871094 185.67578 C 53.543104 184.16098 49.819606 181.90298 46.697266 178.9043 C 43.57493 175.90562 41.147213 172.16616 39.416016 167.68359 C 37.715732 163.20103 36.865234 158.02214 36.865234 152.14844 C 36.865234 146.67662 37.685764 141.71532 39.324219 137.26367 C 40.962669 132.81202 43.342503 128.99471 46.464844 125.81055 C 49.463523 122.75003 53.173013 120.38421 57.59375 118.71484 C 62.045399 117.04548 66.898879 116.21094 72.154297 116.21094 z M 138.29883 129.14844 C 136.04209 129.14844 133.90786 129.54975 131.89844 130.35352 C 129.91993 131.15729 128.09711 132.48694 126.42773 134.3418 C 124.88202 136.07299 123.61426 138.46879 122.625 141.5293 C 121.66666 144.55889 121.1875 148.08271 121.1875 152.10156 C 121.1875 156.21315 121.65071 159.72297 122.57812 162.62891 C 123.53647 165.50393 124.78827 167.85379 126.33398 169.67773 C 127.8797 171.50167 129.68851 172.84534 131.75977 173.71094 C 133.83102 174.57654 136.01118 175.00977 138.29883 175.00977 C 140.58648 175.00977 142.76468 174.57654 144.83594 173.71094 C 146.90719 172.81442 148.71601 171.43884 150.26172 169.58398 C 151.99292 167.48182 153.27664 165.00817 154.11133 162.16406 C 154.94601 159.28904 155.36328 155.92092 155.36328 152.05664 C 155.36328 147.91413 154.88412 144.38836 153.92578 141.48242 C 152.96744 138.57648 151.71563 136.22857 150.16992 134.43555 C 148.5933 132.58069 146.76852 131.23507 144.69727 130.40039 C 142.65693 129.56571 140.52465 129.14844 138.29883 129.14844 z M 191.31836 161.13477 C 196.09242 161.13477 199.7319 162.14042 202.23828 164.15234 C 204.74466 166.14722 205.99805 168.97874 205.99805 172.64453 C 205.99805 175.04861 205.39221 177.33267 204.18164 179.49805 C 202.98813 181.66342 201.15587 183.89744 198.68359 186.19922 C 197.13202 187.63143 195.57057 188.95154 194.00195 190.16211 C 192.43333 191.35562 191.3173 192.19252 190.65234 192.66992 L 207.76172 192.66992 L 207.76172 199.95898 L 177.86523 199.95898 L 177.86523 193.66602 C 180.14996 192.01215 182.43402 190.25691 184.71875 188.39844 C 187.02053 186.53996 188.86307 184.93681 190.24414 183.58984 C 192.30722 181.59497 193.77302 179.85641 194.64258 178.37305 C 195.51214 176.88968 195.94727 175.42388 195.94727 173.97461 C 195.94727 172.23549 195.38312 170.89675 194.25781 169.95898 C 193.14954 169.00417 191.54835 168.52539 189.45117 168.52539 C 187.88255 168.52539 186.2274 168.85014 184.48828 169.49805 C 182.76622 170.14596 181.16501 170.97255 179.68164 171.97852 L 178.86133 171.97852 L 178.86133 163.51367 C 180.07189 162.98512 181.8541 162.45629 184.20703 161.92773 C 186.57701 161.39918 188.94838 161.13477 191.31836 161.13477 z "
       style="fill:#ffffff;stroke:none;stroke-width:0.9864567;stroke-opacity:1;stroke-miterlimit:4;stroke-dasharray:none"
       id="path855" />
    <text
       id="text907"
       y="76.918159"
       x="35.529758"
       style="font-style:normal;font-weight:normal;font-size:10.5833px;line-height:1.25;font-family:sans-serif;fill:#000000;fill-opacity:1;stroke:none;stroke-width:0.264583;"
       xml:space="preserve"><tspan
         style="stroke-width:0.264583;fill:#000000;"
         y="76.918159"
         x="35.529758"
         id="tspan905"
         sodipodi:role="line" /></text>
  </g>
</svg>
