<?xml version="1.0" encoding="UTF-8" standalone="no"?>
<svg
   xmlns:dc="http://purl.org/dc/elements/1.1/"
   xmlns:cc="http://creativecommons.org/ns#"
   xmlns:rdf="http://www.w3.org/1999/02/22-rdf-syntax-ns#"
   xmlns:svg="http://www.w3.org/2000/svg"
   xmlns="http://www.w3.org/2000/svg"
   xmlns:sodipodi="http://sodipodi.sourceforge.net/DTD/sodipodi-0.dtd"
   xmlns:inkscape="http://www.inkscape.org/namespaces/inkscape"
   width="240"
   height="240"
   viewBox="0 0 63.499999 63.500002"
   version="1.1"
   id="svg8"
   inkscape:export-filename="C:\Users\gcgol\Desktop\co2.png"
   inkscape:export-xdpi="96"
   inkscape:export-ydpi="96"
   sodipodi:docname="tvoc-svg.svg"
   inkscape:version="1.0 (4035a4fb49, 2020-05-01)">
  <defs
     id="defs2" />
  <sodipodi:namedview
     id="base"
     pagecolor="#ffffff"
     bordercolor="#666666"
     borderopacity="1.0"
     inkscape:pageopacity="0.0"
     inkscape:pageshadow="2"
     inkscape:zoom="1.979899"
     inkscape:cx="126.50464"
     inkscape:cy="181.84032"
     inkscape:document-units="mm"
     inkscape:current-layer="layer1"
     inkscape:document-rotation="0"
     showgrid="false"
     units="px"
     inkscape:window-width="1853"
     inkscape:window-height="1057"
     inkscape:window-x="-8"
     inkscape:window-y="-8"
     inkscape:window-maximized="1" />
  <metadata
     id="metadata5">
    <rdf:RDF>
      <cc:Work
         rdf:about="">
        <dc:format>image/svg+xml</dc:format>
        <dc:type
           rdf:resource="http://purl.org/dc/dcmitype/StillImage" />
        <dc:title />
      </cc:Work>
    </rdf:RDF>
  </metadata>
  <g
     inkscape:label="Layer 1"
     inkscape:groupmode="layer"
     id="layer1">
    <path
       id="path10"
       style="fill:#ffffff;fill-rule:evenodd;stroke-width:0.257134"
       d="M 32.544877,0.72931816 A 16.499962,29.149286 0 0 0 20.033909,10.874448 7.97498,14.088819 0 0 0 15.219916,8.0170208 7.97498,14.088819 0 0 0 7.244719,22.10556 7.97498,14.088819 0 0 0 7.3811973,24.698631 11.052884,19.533038 0 0 0 0.04177616,43.096556 11.052884,19.533038 0 0 0 11.094711,62.629615 11.052884,19.533038 0 0 0 12.538832,62.461574 h 36.910663 a 12.546847,22.203177 0 0 0 1.52007,0.164048 A 12.546847,22.203177 0 0 0 63.516624,40.42245 12.546847,22.203177 0 0 0 50.969565,18.219272 12.546847,22.203177 0 0 0 47.83468,18.923999 16.499962,29.149286 0 0 0 32.544877,0.72931816 Z M 54.151448,29.370011 c 0.606119,0 1.151134,0.06276 1.634742,0.187968 0.490054,0.11395 0.941218,0.267372 1.353888,0.460959 0.432025,0.216469 0.822219,0.461914 1.170412,0.73528 0.354641,0.262007 0.664286,0.506793 0.928661,0.734614 v 6.168508 h -0.425605 c -0.180549,-0.273383 -0.409649,-0.598485 -0.686907,-0.974393 -0.27082,-0.375908 -0.580091,-0.746022 -0.928283,-1.110555 -0.354647,-0.364516 -0.738564,-0.671974 -1.151238,-0.922585 -0.412672,-0.250618 -0.854223,-0.375942 -1.324938,-0.375942 -0.522297,0 -1.018915,0.148185 -1.489616,0.444353 -0.470711,0.28478 -0.905985,0.763268 -1.305765,1.435355 -0.380439,0.649318 -0.689707,1.50902 -0.928283,2.579789 -0.232129,1.07079 -0.348154,2.369815 -0.348154,3.896251 0,1.594787 0.125635,2.92708 0.377104,3.997873 0.257929,1.070766 0.580132,1.914158 0.96701,2.529309 0.393337,0.626499 0.831935,1.076264 1.315538,1.349671 0.483605,0.261989 0.960635,0.39321 1.43134,0.39321 0.451371,0 0.89625,-0.120135 1.334713,-0.359336 0.444921,-0.23922 0.854705,-0.563654 1.228688,-0.97373 0.315956,-0.330343 0.609338,-0.683502 0.88016,-1.059415 0.270816,-0.375927 0.493258,-0.700343 0.667359,-0.973729 h 0.386877 v 6.082829 c -0.361091,0.284779 -0.706206,0.552436 -1.03506,0.803029 -0.328847,0.250611 -0.673971,0.467335 -1.035063,0.649592 -0.47071,0.239219 -0.912266,0.421324 -1.324937,0.546646 -0.412675,0.125201 -0.98023,0.187968 -1.702419,0.187968 -1.070376,0 -2.059899,-0.278734 -2.96908,-0.836904 -0.902723,-0.558185 -1.679797,-1.389808 -2.331049,-2.49477 -0.651256,-1.104934 -1.157476,-2.483614 -1.518565,-4.135365 -0.354646,-1.65175 -0.532006,-3.559802 -0.532007,-5.72415 10e-7,-2.016264 0.171088,-3.844709 0.512831,-5.485039 0.341752,-1.640352 0.837993,-3.047072 1.489241,-4.220382 0.62546,-1.127729 1.3992,-1.999203 2.321274,-2.614329 0.928523,-0.615149 1.940964,-0.922588 3.037131,-0.922588 z M 3.9436524,29.865515 H 16.652757 v 4.921123 h -4.49742 V 55.308039 H 8.4410729 V 34.786638 H 3.9436524 Z m 13.3377376,0 h 3.898116 l 3.481911,17.873201 3.481912,-17.873201 h 3.801113 l -5.252004,25.442524 h -4.159043 z m 21.69455,5.655737 c 1.89573,0 3.35933,0.911274 4.391022,2.733885 1.038134,1.822611 1.55729,4.311651 1.55729,7.467037 0,3.155412 -0.522106,5.644429 -1.56669,7.467036 -1.038137,1.811213 -2.498789,2.716615 -4.381622,2.716615 -1.882833,0 -3.346436,-0.905402 -4.39102,-2.716615 -1.038137,-1.822607 -1.557291,-4.311624 -1.557291,-7.467036 0,-3.178182 0.52248,-5.673093 1.567066,-7.484306 1.051034,-1.811214 2.511308,-2.716618 4.381245,-2.716616 z m 0,4.288796 c -0.335299,0 -0.634965,0.07953 -0.899334,0.239119 -0.25792,0.159597 -0.506228,0.478797 -0.744809,0.957124 -0.212784,0.444241 -0.383868,1.053953 -0.51283,1.828566 -0.122517,0.774612 -0.183474,1.748538 -0.183474,2.921854 0,1.048002 0.05468,1.959271 0.164301,2.733885 0.109622,0.763217 0.270718,1.378138 0.483504,1.845175 0.206336,0.444263 0.451316,0.768679 0.735033,0.973731 0.29016,0.205004 0.61902,0.307527 0.98656,0.307527 0.315955,0 0.615997,-0.09068 0.89971,-0.27299 0.290163,-0.19376 0.535141,-0.512967 0.735031,-0.957122 0.225683,-0.48981 0.39344,-1.076673 0.503056,-1.760156 0.11607,-0.69488 0.174078,-1.65119 0.174076,-2.87005 0,-1.127747 -0.058,-2.073618 -0.174076,-2.836837 C 41.026622,42.156661 40.865141,41.547612 40.658809,41.091973 40.45247,40.624912 40.204538,40.29396 39.914377,40.10031 39.624214,39.906548 39.31124,39.810048 38.97594,39.810048 Z" />
    <text
       xml:space="preserve"
       style="font-style:normal;font-weight:normal;font-size:10.5833px;line-height:1.25;font-family:sans-serif;fill:#000000;fill-opacity:1;stroke:none;stroke-width:0.264583"
       x="46.680061"
       y="125.67708"
       id="text857"><tspan
         sodipodi:role="line"
         x="46.680061"
         y="125.67708"
         style="stroke-width:0.264583"
         id="tspan861" /></text>
  </g>
</svg>
