<?xml version="1.0" encoding="UTF-8" standalone="no"?>
<svg
   xmlns:dc="http://purl.org/dc/elements/1.1/"
   xmlns:cc="http://creativecommons.org/ns#"
   xmlns:rdf="http://www.w3.org/1999/02/22-rdf-syntax-ns#"
   xmlns:svg="http://www.w3.org/2000/svg"
   xmlns="http://www.w3.org/2000/svg"
   xmlns:sodipodi="http://sodipodi.sourceforge.net/DTD/sodipodi-0.dtd"
   xmlns:inkscape="http://www.inkscape.org/namespaces/inkscape"
   inkscape:version="1.0 (4035a4fb49, 2020-05-01)"
   sodipodi:docname="tvoc-svg.svg"
   inkscape:export-ydpi="96"
   inkscape:export-xdpi="96"
   inkscape:export-filename="C:\Users\gcgol\Desktop\co2.png"
   id="svg8"
   version="1.1"
   viewBox="0 0 63.499999 63.500002"
   height="240"
   width="240">
  <defs
     id="defs2" />
  <sodipodi:namedview
     inkscape:window-maximized="1"
     inkscape:window-y="-8"
     inkscape:window-x="-8"
     inkscape:window-height="1057"
     inkscape:window-width="1853"
     units="px"
     showgrid="false"
     inkscape:document-rotation="0"
     inkscape:current-layer="layer1"
     inkscape:document-units="mm"
     inkscape:cy="154.55937"
     inkscape:cx="225.0934"
     inkscape:zoom="1.979899"
     inkscape:pageshadow="2"
     inkscape:pageopacity="0.0"
     borderopacity="1.0"
     bordercolor="#666666"
     pagecolor="#ffffff"
     id="base" />
  <metadata
     id="metadata5">
    <rdf:RDF>
      <cc:Work
         rdf:about="">
        <dc:format>image/svg+xml</dc:format>
        <dc:type
           rdf:resource="http://purl.org/dc/dcmitype/StillImage" />
        <dc:title></dc:title>
      </cc:Work>
    </rdf:RDF>
  </metadata>
  <g
     id="layer1"
     inkscape:groupmode="layer"
     inkscape:label="Layer 1">
    <path
       d="m 32.544877,13.15838 a 16.499962,16.499962 0 0 0 -12.510968,5.742654 7.97498,7.97498 0 0 0 -4.813993,-1.617448 7.97498,7.97498 0 0 0 -7.975197,7.974822 7.97498,7.97498 0 0 0 0.1364783,1.467808 11.052884,11.056682 0 0 0 -7.33942114,10.414151 11.052884,11.056682 0 0 0 11.05293484,11.056694 11.052884,11.056682 0 0 0 1.444121,-0.09512 h 36.910663 a 12.546847,12.568115 0 0 0 1.52007,0.09286 A 12.546847,12.568115 0 0 0 63.516624,35.626689 12.546847,12.568115 0 0 0 50.969565,23.058573 12.546847,12.568115 0 0 0 47.83468,23.457484 16.499962,16.499962 0 0 0 32.544877,13.15838 Z m 21.606571,16.212072 c 0.606119,0 1.151134,0.03553 1.634742,0.1064 0.490054,0.0645 0.941218,0.151346 1.353888,0.260926 0.432025,0.122532 0.822219,0.261467 1.170412,0.416205 0.354641,0.148309 0.664286,0.28687 0.928661,0.415829 v 3.491685 h -0.425605 c -0.180549,-0.154748 -0.409649,-0.338772 -0.686907,-0.551555 -0.27082,-0.212783 -0.580091,-0.422286 -0.928283,-0.62863 -0.354647,-0.206334 -0.738564,-0.380371 -1.151238,-0.52223 -0.412672,-0.141862 -0.854223,-0.212802 -1.324938,-0.212802 -0.522297,0 -1.018915,0.08388 -1.489616,0.251526 -0.470711,0.1612 -0.905985,0.432048 -1.305765,0.812484 -0.380439,0.367546 -0.689707,0.854181 -0.928283,1.46029 -0.232129,0.606121 -0.348154,1.341435 -0.348154,2.205474 0,0.902729 0.125635,1.656875 0.377104,2.262997 0.257929,0.606107 0.580132,1.08351 0.96701,1.431716 0.393337,0.35463 0.831935,0.60922 1.315538,0.763982 0.483605,0.148299 0.960635,0.222577 1.43134,0.222577 0.451371,0 0.89625,-0.068 1.334713,-0.203403 0.444921,-0.13541 0.854705,-0.319056 1.228688,-0.55118 0.315956,-0.186991 0.609338,-0.386896 0.88016,-0.599682 0.270816,-0.212794 0.493258,-0.396429 0.667359,-0.55118 h 0.386877 v 3.443187 c -0.361091,0.1612 -0.706206,0.312707 -1.03506,0.454555 -0.328847,0.141858 -0.673971,0.264536 -1.035063,0.367702 -0.47071,0.13541 -0.912266,0.238491 -1.324937,0.309429 -0.412675,0.07087 -0.98023,0.1064 -1.702419,0.1064 -1.070376,0 -2.059899,-0.157778 -2.96908,-0.47373 -0.902723,-0.315961 -1.679797,-0.786701 -2.331049,-1.412166 -0.651256,-0.625448 -1.157476,-1.40585 -1.518565,-2.340824 -0.354646,-0.934974 -0.532006,-2.015027 -0.532007,-3.240157 10e-7,-1.141307 0.171088,-2.176298 0.512831,-3.104808 0.341752,-0.928522 0.837993,-1.724795 1.489241,-2.388948 0.62546,-0.638352 1.3992,-1.13165 2.321274,-1.479842 0.928523,-0.348205 1.940964,-0.522231 3.037131,-0.522231 z M 3.9436524,29.650932 H 16.652757 v 2.785604 h -4.49742 V 44.05268 H 8.4410729 V 32.436536 H 3.9436524 Z m 13.3377376,0 h 3.898116 l 3.481911,10.117131 3.481912,-10.117131 h 3.801113 L 26.692438,44.05268 h -4.159043 z m 21.69455,3.201432 c 1.89573,0 3.35933,0.515827 4.391022,1.547516 1.038134,1.03169 1.55729,2.440612 1.55729,4.226719 0,1.786122 -0.522106,3.195031 -1.56669,4.226718 -1.038137,1.025238 -2.498789,1.537741 -4.381622,1.537741 -1.882833,0 -3.346436,-0.512503 -4.39102,-1.537741 -1.038137,-1.031687 -1.557291,-2.440596 -1.557291,-4.226718 0,-1.799011 0.52248,-3.211256 1.567066,-4.236493 1.051034,-1.025239 2.511308,-1.537743 4.381245,-1.537742 z m 0,2.427674 c -0.335299,0 -0.634965,0.04502 -0.899334,0.135353 -0.25792,0.09034 -0.506228,0.271024 -0.744809,0.541781 -0.212784,0.251463 -0.383868,0.596591 -0.51283,1.03506 -0.122517,0.43847 -0.183474,0.989761 -0.183474,1.653917 0,0.593221 0.05468,1.109046 0.164301,1.547516 0.109622,0.432019 0.270718,0.780095 0.483504,1.044462 0.206336,0.251475 0.451316,0.435111 0.735033,0.55118 0.29016,0.116043 0.61902,0.174076 0.98656,0.174076 0.315955,0 0.615997,-0.05133 0.89971,-0.154526 0.290163,-0.109677 0.535141,-0.290365 0.735031,-0.541779 0.225683,-0.277257 0.39344,-0.609451 0.503056,-0.996337 0.11607,-0.393337 0.174078,-0.934656 0.174076,-1.624592 0,-0.638362 -0.058,-1.173773 -0.174076,-1.605793 -0.116066,-0.432017 -0.277547,-0.776769 -0.483879,-1.034684 -0.206339,-0.26438 -0.454271,-0.451715 -0.744432,-0.561331 -0.290163,-0.109679 -0.603137,-0.164303 -0.938437,-0.164303 z"
       style="fill:#ffffff;fill-rule:evenodd;stroke-width:0.193458"
       id="path10" />
    <text
       id="text857"
       y="125.67708"
       x="46.680061"
       style="font-style:normal;font-weight:normal;font-size:10.5833px;line-height:1.25;font-family:sans-serif;fill:#000000;fill-opacity:1;stroke:none;stroke-width:0.264583"
       xml:space="preserve"><tspan
         id="tspan861"
         style="stroke-width:0.264583"
         y="125.67708"
         x="46.680061"
         sodipodi:role="line" /></text>
  </g>
</svg>
