<?xml version="1.0" encoding="UTF-8" standalone="no"?>
<svg
   xmlns="http://www.w3.org/2000/svg"
   viewBox="0 0 63.499999 63.500002"
   height="240"
   width="240">
  <g>
    <path
       d="m 32.429262,12.731322 a 16.405404,16.405404 0 0 0 -12.439269,5.709369 7.929277,7.929277 0 0 0 -4.786405,-1.608178 7.929277,7.929277 0 0 0 -7.9294907,7.929117 7.929277,7.929277 0 0 0 0.1356959,1.459771 10.989543,10.993319 0 0 0 -7.29698698,10.354096 10.989543,10.993319 0 0 0 10.98921878,10.99333 10.989543,10.993319 0 0 0 1.436966,-0.09457 h 36.698014 a 12.474944,12.496089 0 0 0 1.511732,0.09233 A 12.474944,12.496089 0 0 0 63.223519,35.070493 12.474944,12.496089 0 0 0 50.748737,22.574405 12.474944,12.496089 0 0 0 47.631816,22.971027 16.405404,16.405404 0 0 0 32.429262,12.731322 Z m -13.74241,11.378365 c 2.374642,0 4.383883,0.531698 6.027865,1.595093 v 4.033157 c -2.017255,-1.236309 -3.927107,-1.854526 -5.72993,-1.854526 -1.771051,0 -3.220528,0.518755 -4.348286,1.556217 -1.119814,1.028817 -1.679951,2.342891 -1.679951,3.942316 0,1.60807 0.552096,2.93509 1.656027,3.981195 1.111873,1.046111 2.53358,1.5693 4.264925,1.5693 0.857729,0 1.683492,-0.121278 2.477685,-0.363355 0.794196,-0.250714 1.977673,-0.795357 3.55018,-1.63397 v 3.9554 c -2.080792,1.20173 -4.261035,1.802566 -6.540375,1.802566 -2.954404,0 -5.308926,-0.885909 -7.064095,-2.658242 -1.7472289,-1.780982 -2.6208593,-3.972836 -2.6208593,-6.575139 0,-2.602302 0.9211271,-4.811165 2.7636583,-6.626725 1.850473,-1.815562 4.264927,-2.723287 7.243156,-2.723287 z m 18.357605,0 c 2.835274,0 5.13061,0.933609 6.885783,2.801042 1.755172,1.858788 2.632824,4.024385 2.632824,6.497009 0,2.507197 -0.889717,4.681675 -2.66871,6.523178 -1.779,1.841495 -4.062274,2.762164 -6.849897,2.762164 -2.819391,0 -5.114357,-0.916229 -6.885409,-2.749081 -1.771054,-1.832853 -2.656747,-4.011771 -2.656747,-6.536261 0,-2.481268 0.87765,-4.651304 2.632822,-6.510093 1.76311,-1.85879 4.066116,-2.787958 6.909334,-2.787958 z m 0,3.773724 c -1.580447,0 -2.854899,0.505813 -3.823815,1.517338 -0.960977,1.011527 -1.441454,2.347042 -1.441454,4.006989 0,1.651292 0.480477,2.987188 1.441454,4.007362 0.968916,1.011527 2.243368,1.517339 3.823815,1.517339 1.572505,0 2.839288,-0.505812 3.800265,-1.517339 0.960971,-1.020174 1.441453,-2.35607 1.441453,-4.007362 0,-1.659947 -0.480482,-2.995462 -1.441453,-4.006989 -0.960977,-1.011525 -2.22776,-1.517338 -3.800265,-1.517338 z m 13.564095,5.827495 c 1.022923,0 1.827444,0.286802 2.413391,0.85979 0.590909,0.572986 0.88633,1.359159 0.88633,2.359183 0,1.367604 -0.940748,3.349094 -2.822724,5.943756 h 3.35168 v 2.310586 h -6.874942 v -0.316252 c 0.630633,-0.837858 1.350537,-1.897111 2.159939,-3.178226 0.814361,-1.286518 1.328491,-2.200301 1.54201,-2.740855 0.213525,-0.540555 0.320364,-1.064918 0.320364,-1.57304 0,-0.443254 -0.136597,-0.824218 -0.409707,-1.143145 -0.268147,-0.318925 -0.593321,-0.478491 -0.975674,-0.478491 -0.759742,0 -1.59402,0.470609 -2.502731,1.411175 v -2.376006 c 1.017955,-0.718938 1.988458,-1.078475 2.912064,-1.078475 z"
       style="fill:#ffffff;fill-rule:evenodd;stroke-width:0.19235" />
    <text
       y="125.67708"
       x="46.680061"
       style="font-style:normal;font-weight:normal;font-size:10.5833px;line-height:1.25;font-family:sans-serif;fill:#000000;fill-opacity:1;stroke:none;stroke-width:0.264583"
       xml:space="preserve"><tspan
         style="stroke-width:0.264583"
         y="125.67708"
         x="46.680061" /></text>
    <g
       aria-label="2"
       transform="matrix(1.1733394,0,0,1.2772864,-9.1751372,-36.885307)"
       style="font-style:normal;font-variant:normal;font-weight:normal;font-stretch:normal;font-size:17.9722px;line-height:1.25;font-family:'Gill Sans MT';-inkscape-font-specification:'Gill Sans MT';fill:#ff0000;fill-opacity:1;stroke:none;stroke-width:0.449304" />
  </g>
</svg>
