<?xml version="1.0" encoding="UTF-8" standalone="no"?>
<svg
   xmlns:dc="http://purl.org/dc/elements/1.1/"
   xmlns:cc="http://creativecommons.org/ns#"
   xmlns:rdf="http://www.w3.org/1999/02/22-rdf-syntax-ns#"
   xmlns:svg="http://www.w3.org/2000/svg"
   xmlns="http://www.w3.org/2000/svg"
   xmlns:sodipodi="http://sodipodi.sourceforge.net/DTD/sodipodi-0.dtd"
   xmlns:inkscape="http://www.inkscape.org/namespaces/inkscape"
   inkscape:version="1.0 (4035a4fb49, 2020-05-01)"
   sodipodi:docname="tvoc-svg.svg"
   inkscape:export-ydpi="96"
   inkscape:export-xdpi="96"
   inkscape:export-filename="C:\Users\gcgol\Desktop\co2.png"
   id="svg8"
   version="1.1"
   viewBox="0 0 63.499999 63.500002"
   height="240"
   width="240">
  <defs
     id="defs2" />
  <sodipodi:namedview
     inkscape:window-maximized="1"
     inkscape:window-y="-8"
     inkscape:window-x="-8"
     inkscape:window-height="1057"
     inkscape:window-width="1853"
     units="px"
     showgrid="false"
     inkscape:document-rotation="0"
     inkscape:current-layer="layer1"
     inkscape:document-units="mm"
     inkscape:cy="178.39989"
     inkscape:cx="107.50271"
     inkscape:zoom="1.4"
     inkscape:pageshadow="2"
     inkscape:pageopacity="0.0"
     borderopacity="1.0"
     bordercolor="#666666"
     pagecolor="#ffffff"
     id="base" />
  <metadata
     id="metadata5">
    <rdf:RDF>
      <cc:Work
         rdf:about="">
        <dc:format>image/svg+xml</dc:format>
        <dc:type
           rdf:resource="http://purl.org/dc/dcmitype/StillImage" />
        <dc:title></dc:title>
      </cc:Work>
    </rdf:RDF>
  </metadata>
  <g
     id="layer1"
     inkscape:groupmode="layer"
     inkscape:label="Layer 1">
    <text
       id="text857"
       y="125.67708"
       x="46.680061"
       style="font-style:normal;font-weight:normal;font-size:10.5833px;line-height:1.25;font-family:sans-serif;fill:#000000;fill-opacity:1;stroke:none;stroke-width:0.264583"
       xml:space="preserve"><tspan
         id="tspan861"
         style="stroke-width:0.264583"
         y="125.67708"
         x="46.680061"
         sodipodi:role="line" /></text>
    <text
       id="text907"
       y="76.918159"
       x="35.529758"
       style="font-style:normal;font-weight:normal;font-size:10.5833px;line-height:1.25;font-family:sans-serif;fill:#000000;fill-opacity:1;stroke:none;stroke-width:0.264583;"
       xml:space="preserve"><tspan
         style="stroke-width:0.264583;fill:#000000;"
         y="76.918159"
         x="35.529758"
         id="tspan905"
         sodipodi:role="line" /></text>
    <path
       id="path855-5"
       style="fill:#ffffff;stroke:none;stroke-width:0.260664;stroke-opacity:1"
       d="M 35.93734,5.0290719 A 19.270555,18.525799 0 0 0 18.295525,16.101781 9.8680143,9.3094474 0 0 0 9.777698,25.32344 9.8680143,9.3094474 0 0 0 10.161654,27.89331 15.26749,15.63987 0 0 0 0.46818802,42.453143 15.26749,15.63987 0 0 0 15.73599,58.093015 a 15.26749,15.63987 0 0 0 0.380339,-0.0052 h 28.422039 v -0.0026 a 18.060106,17.964043 0 0 0 0.43305,0.0052 18.060106,17.964043 0 0 0 18.06039,-17.963809 18.060106,17.964043 0 0 0 -7.90649,-14.855939 19.270555,18.525799 0 0 0 0.0827,-1.715658 A 19.270555,18.525799 0 0 0 35.93736,5.0290089 Z m -3.450434,6.6931311 a 1.7388057,1.7388057 0 0 1 5.29e-4,0 1.7388057,1.7388057 0 0 1 1.726509,1.693437 1.7388057,1.7388057 0 0 1 -1.693436,1.783354 1.7388057,1.7388057 0 0 1 -1.783353,-1.69292 1.7388057,1.7388057 0 0 1 1.692918,-1.783354 1.7388057,1.7388057 0 0 1 0.05685,-5.29e-4 z m 7.122046,0.560173 a 3.6018118,3.6018118 0 0 1 3.611666,3.508313 3.6018118,3.6018118 0 0 1 -3.50676,3.694348 3.6018118,3.6018118 0 0 1 -3.694352,-3.507279 3.6018118,3.6018118 0 0 1 3.50728,-3.694349 3.6018118,3.6018118 0 0 1 0.08217,-0.001 z M 28.124898,16.30797 a 1.2420041,1.2420041 0 0 1 1.225764,1.209745 1.2420041,1.2420041 0 0 1 -1.209228,1.273824 1.2420041,1.2420041 0 0 1 -1.273823,-1.209228 1.2420041,1.2420041 0 0 1 1.209228,-1.273824 1.2420041,1.2420041 0 0 1 0.04806,-5.29e-4 z m 4.906676,2.108915 a 1.6146052,1.6146052 0 0 1 5.3e-4,0 1.6146052,1.6146052 0 0 1 1.600938,1.572514 1.6146052,1.6146052 0 0 1 -1.571998,1.65623 1.6146052,1.6146052 0 0 1 -1.656231,-1.571997 1.6146052,1.6146052 0 0 1 1.571998,-1.65623 1.6146052,1.6146052 0 0 1 0.05478,-5.29e-4 z m 20.386874,15.127242 c 0.631,0 1.19825,0.03675 1.7017,0.110588 0.51017,0.06713 0.98011,0.157705 1.40973,0.271817 0.44975,0.12755 0.85604,0.271949 1.21853,0.433049 0.3692,0.154395 0.69164,0.298791 0.96687,0.433049 v 3.63492 h -0.44338 c -0.18796,-0.161108 -0.42604,-0.352603 -0.71469,-0.574125 -0.28194,-0.221522 -0.60438,-0.439415 -0.96686,-0.654225 -0.36921,-0.21481 -0.76824,-0.39647 -1.19786,-0.544152 -0.42962,-0.147683 -0.88973,-0.221176 -1.37976,-0.221176 -0.54374,0 -1.06077,0.08695 -1.55081,0.261482 -0.49003,0.16782 -0.94289,0.44989 -1.35909,0.845945 -0.39606,0.382629 -0.7185,0.889317 -0.96687,1.520319 -0.24165,0.631002 -0.36225,1.396471 -0.36225,2.295986 0,0.939789 0.13094,1.725443 0.39274,2.356445 0.2685,0.631002 0.60388,1.127339 1.00666,1.489832 0.40946,0.369202 0.86595,0.634709 1.36942,0.795816 0.50346,0.154395 1.00033,0.23151 1.49035,0.23151 0.46991,0 0.93311,-0.07039 1.38958,-0.211357 0.46317,-0.14097 0.88964,-0.332464 1.27899,-0.574124 0.32892,-0.19467 0.63429,-0.402728 0.91622,-0.62425 0.28194,-0.221523 0.51328,-0.41302 0.69453,-0.574128 h 0.40308 v 3.584795 c -0.37592,0.16782 -0.73509,0.325676 -1.07745,0.473356 -0.34234,0.147682 -0.70154,0.275002 -1.07746,0.382407 -0.49004,0.140967 -0.95013,0.248618 -1.37976,0.322461 -0.4296,0.07384 -1.02014,0.110585 -1.77198,0.110588 -1.11431,-3e-6 -2.14477,-0.164584 -3.09129,-0.493511 -0.93979,-0.328928 -1.74873,-0.819055 -2.42672,-1.470195 -0.67799,-0.651139 -1.20486,-1.463188 -1.58078,-2.436542 -0.36921,-0.973358 -0.55397,-2.097493 -0.55397,-3.372922 0,-1.188164 0.17803,-2.26572 0.53381,-3.232362 0.35577,-0.966642 0.87282,-1.795769 1.55081,-2.487186 0.65114,-0.664565 1.45647,-1.177983 2.41639,-1.540473 0.96665,-0.362493 2.02039,-0.543637 3.16157,-0.543637 z m -47.725771,0.29197 h 13.230717 v 2.899567 h -4.682403 v 12.093318 h -3.86643 V 36.735664 H 5.692677 Z m 13.380577,0 h 4.057634 l 3.625101,10.532174 3.624585,-10.532174 h 3.957381 l -5.467366,14.992885 h -4.329966 z m 20.061308,3.332615 c 1.973556,0 3.497236,0.537224 4.571296,1.611271 1.08075,1.074044 1.62109,2.540804 1.62109,4.400248 0,1.859441 -0.54397,3.326201 -1.63142,4.400248 -1.08076,1.067332 -2.60083,1.600936 -4.560966,1.600936 -1.960134,0 -3.483832,-0.533604 -4.571299,-1.600936 -1.080759,-1.074047 -1.621605,-2.540807 -1.621605,-4.400248 0,-1.872869 0.543957,-3.343249 1.631424,-4.410583 1.094187,-1.067335 2.614774,-1.600936 4.56148,-1.600936 z m 0,2.527494 c -0.349067,0 -0.661157,0.04709 -0.936376,0.141075 -0.268515,0.09399 -0.527294,0.281858 -0.775663,0.56379 -0.221523,0.2618 -0.399042,0.620985 -0.533302,1.077455 -0.127548,0.45647 -0.19172,1.030441 -0.19172,1.721858 0,0.617577 0.05745,1.154287 0.171566,1.610754 0.114112,0.449758 0.281803,0.812565 0.503328,1.08779 0.214807,0.2618 0.469969,0.452779 0.765328,0.573609 0.30208,0.120832 0.644184,0.181385 1.026811,0.181385 0.328927,0 0.641014,-0.05383 0.936374,-0.161232 0.30208,-0.114118 0.55724,-0.30199 0.76533,-0.56379 0.23495,-0.28865 0.40936,-0.634378 0.52348,-1.037146 0.12081,-0.409479 0.18139,-0.9731 0.18139,-1.69137 0,-0.664567 -0.0606,-1.221975 -0.18139,-1.671733 -0.12083,-0.449757 -0.28852,-0.808942 -0.50333,-1.077452 -0.21481,-0.275225 -0.47308,-0.469828 -0.77514,-0.583943 -0.30208,-0.11412 -0.627618,-0.17105 -0.976686,-0.17105 z" />
  </g>
</svg>
